<!-- icon666.com - MILLIONS vector ICONS FREE --><svg version="1.1" id="Capa_1" xmlns="http://www.w3.org/2000/svg" xmlns:xlink="http://www.w3.org/1999/xlink" x="0px" y="0px" viewBox="0 0 512 512" style="enable-background:new 0 0 512 512;" xml:space="preserve"><polygon style="fill:#FF836B;" points="512,195.219 481.095,184.182 450.189,256 481.095,328.848 512,317.811 "></polygon><g><polygon style="fill:#F79E8C;" points="427.634,165.089 426.952,348.185 481.095,328.848 481.095,184.182 "></polygon><polygon style="fill:#F79E8C;" points="84.366,165.089 0,195.219 0,317.811 84.366,348.185 "></polygon></g><circle style="fill:#325D63;" cx="256" cy="256" r="194.189"></circle><path style="fill:#ABFFF9;" d="M256,92.716v326.567c90.179,0,163.284-73.105,163.284-163.284S346.179,92.716,256,92.716z"></path><path style="fill:#FFFFFF;" d="M388.378,256c0-90.179-59.267-163.284-132.378-163.284c-90.179,0-163.284,73.105-163.284,163.284 S165.821,419.284,256,419.284C329.111,419.284,388.378,346.179,388.378,256z"></path><circle style="fill:#439292;" cx="256" cy="321.932" r="73.658"></circle><polygon style="fill:#66FCF1;" points="348.716,163.284 348.716,225.095 317.811,225.095 297.207,194.189 317.811,163.284 "></polygon><polygon style="fill:#DBFFFC;" points="317.811,163.284 317.811,225.095 286.905,225.095 266.302,194.189 286.905,163.284 "></polygon><polygon style="fill:#66FCF1;" points="286.905,163.284 286.905,225.095 256,225.095 235.396,194.189 256,163.284 "></polygon><polygon style="fill:#DBFFFC;" points="256,163.284 256,225.095 225.095,225.095 204.491,194.189 225.095,163.284 "></polygon><polygon style="fill:#66FCF1;" points="225.095,163.284 225.095,225.095 194.189,225.095 173.586,194.189 194.189,163.284 "></polygon><rect x="163.284" y="163.284" style="fill:#DBFFFC;" width="30.905" height="61.811"></rect><path style="fill:#439292;" d="M286.905,140.105h-61.811c-4.267,0-7.726-3.459-7.726-7.726s3.459-7.726,7.726-7.726h61.811 c4.267,0,7.726,3.459,7.726,7.726S291.172,140.105,286.905,140.105z"></path><path style="fill:#DBFFFC;" d="M306.479,314.205h7.2c-1.366-10.293-5.414-19.733-11.429-27.598l-5.093,5.093 c-3.017,3.017-7.91,3.017-10.926,0c-3.017-3.017-3.017-7.91,0-10.926l5.093-5.093c-7.864-6.015-17.305-10.063-27.598-11.429v7.2 c0,4.267-3.459,7.726-7.726,7.726c-4.267,0-7.726-3.459-7.726-7.726v-7.2c-10.293,1.366-19.733,5.414-27.598,11.429l5.093,5.093 c3.017,3.017,3.017,7.91,0,10.926c-3.017,3.017-7.91,3.017-10.926,0l-5.093-5.093c-6.015,7.864-10.063,17.305-11.429,27.598h7.2 c4.267,0,7.726,3.459,7.726,7.726s-3.459,7.726-7.726,7.726h-7.2c1.366,10.293,5.414,19.733,11.429,27.598l5.092-5.092 c3.017-3.017,7.91-3.017,10.926,0c3.017,3.017,3.017,7.91,0,10.926l-5.092,5.092c7.864,6.015,17.305,10.063,27.598,11.429v-57.679 h15.453v57.679c10.293-1.366,19.733-5.414,27.598-11.429l-5.093-5.093c-3.017-3.017-3.017-7.91,0-10.926 c3.017-3.017,7.91-3.017,10.926,0l5.092,5.092c6.015-7.864,10.063-17.305,11.429-27.598h-7.199c-4.267,0-7.726-3.459-7.726-7.726 S302.212,314.205,306.479,314.205z"></path><circle style="fill:#EF3D19;" cx="256" cy="321.932" r="15.453"></circle></svg>