<!-- icon666.com - MILLIONS vector ICONS FREE --><svg id="Layer_3" enable-background="new 0 0 64 64" viewBox="0 0 64 64" xmlns="http://www.w3.org/2000/svg"><g><g><path d="m28 58h30v4h-30z" fill="#f8cf6a"></path></g><g><path d="m2 62h28l-9-20h-19z" fill="#739937"></path></g><g><path d="m16.585 49.609c0-2.871-.986-5.508-2.625-7.609h-11.96v19.794c.713.128 1.444.206 2.194.206 6.844 0 12.391-5.548 12.391-12.391z" fill="#a3d350"></path></g><g><path d="m26 34h36v8h-36z" fill="#f2c351" transform="matrix(-1 0 0 -1 88 76)"></path></g><g><path d="m2 2h36v8h-36z" fill="#f2c351"></path></g><g><path d="m2 10h18.009c1.256-2.099 1.991-4.545 1.991-7.169 0-.281-.026-.555-.042-.831h-19.958z" fill="#f8cf6a"></path></g><g><path d="m26 42h18.009c1.256-2.099 1.991-4.545 1.991-7.169 0-.281-.026-.555-.042-.831h-19.958z" fill="#f8cf6a"></path></g><g><path d="m62 30h-28l9-20h19z" fill="#739937"></path></g><g><path d="m34 30h12.413c6.447-2.796 10.961-9.212 10.961-16.687 0-1.133-.117-2.238-.316-3.313h-14.058z" fill="#a3d350"></path></g><g><path d="m6 26h30v4h-30z" fill="#f8cf6a"></path></g><g><path d="m2 22v8h4v-8c0-1.105-.895-2-2-2-1.105 0-2 .895-2 2z" fill="#f19846"></path></g><g><path d="m55 6h-6v-1c0-1.657 1.343-3 3-3 1.657 0 3 1.343 3 3z" fill="#c8ec6c"></path></g><g><path d="m46 6h12v4h-12z" fill="#536d26" transform="matrix(-1 0 0 -1 104 16)"></path></g><g><path d="m62 54v8h-4v-8c0-1.105.895-2 2-2 1.105 0 2 .895 2 2z" fill="#f19846"></path></g><g><path d="m9 38h6v-1c0-1.657-1.343-3-3-3-1.657 0-3 1.343-3 3z" fill="#c8ec6c"></path></g><g><path d="m6 38h12v4h-12z" fill="#536d26"></path></g><g><path d="m25.05 51h-8.05v2h8.95z" fill="#a3d350"></path></g><g><path d="m38.05 21h8.949v-2h-8.049z" fill="#739937"></path></g><g><g><path d="m5 2h1.999v3h-1.999z" fill="#f19846"></path></g></g><g><g><path d="m9 2h1.999v5h-1.999z" fill="#f19846"></path></g></g><g><g><path d="m13 2h1.999v3h-1.999z" fill="#f19846"></path></g></g><g><g><path d="m17 2h1.999v5h-1.999z" fill="#f19846"></path></g></g><g><g><path d="m21 2h1.999v3h-1.999z" fill="#f19846"></path></g></g><g><g><path d="m25 2h1.999v5h-1.999z" fill="#f19846"></path></g></g><g><g><path d="m29 2h1.999v3h-1.999z" fill="#f19846"></path></g></g><g><g><path d="m33 2h1.999v5h-1.999z" fill="#f19846"></path></g></g><g><g><path d="m29 34h1.999v3h-1.999z" fill="#f19846"></path></g></g><g><g><path d="m33 34h1.999v5h-1.999z" fill="#f19846"></path></g></g><g><g><path d="m37 34h1.999v3h-1.999z" fill="#f19846"></path></g></g><g><g><path d="m41 34h1.999v5h-1.999z" fill="#f19846"></path></g></g><g><g><path d="m45 34h1.999v3h-1.999z" fill="#f19846"></path></g></g><g><g><path d="m49 34h1.999v5h-1.999z" fill="#f19846"></path></g></g><g><g><path d="m53 34h1.999v3h-1.999z" fill="#f19846"></path></g></g><g><g><path d="m57 34h1.999v5h-1.999z" fill="#f19846"></path></g></g><g><circle cx="52" cy="20" fill="#536d26" r="6"></circle></g><g><circle cx="12" cy="52" fill="#536d26" r="6"></circle></g></g></svg>