<!-- icon666.com - MILLIONS vector ICONS FREE --><svg id="Capa_1" enable-background="new 0 0 497 497" viewBox="0 0 497 497" xmlns="http://www.w3.org/2000/svg"><g><g><path d="m339.254 272.629c-4.142 0-7.5-3.358-7.5-7.5v-22.073c0-4.142 3.358-7.5 7.5-7.5s7.5 3.358 7.5 7.5v22.073c0 4.142-3.358 7.5-7.5 7.5z" fill="#8899a5"></path></g><path d="m2.691 264.214 47.172 139.4c2.114 6.249 7.977 10.454 14.574 10.454h25.063c5.56 0 10.068-4.508 10.068-10.068v-73.633c0-5.547-1.566-10.981-4.518-15.677l-17.592-27.986c-2.787-4.434-4.266-9.565-4.266-14.802v-53.277l-39.402-13.712-33.79 13.713v29.242c0 5.559.909 11.08 2.691 16.346z" fill="#9facba"></path><path d="m95.049 314.69-17.592-27.986c-2.787-4.434-4.266-9.565-4.266-14.802v-53.277l-15.431-5.37-15.09 5.37v53.277c0 5.237 1.479 10.368 4.266 14.802l17.592 27.986c2.952 4.696 4.518 10.13 4.518 15.677v73.633c0 4.717-3.249 8.666-7.628 9.758.982.196 1.989.31 3.018.31h25.063c5.56 0 10.068-4.508 10.068-10.068v-73.633c0-5.547-1.566-10.981-4.518-15.677z" fill="#8899a5"></path><path d="m71.834 124.818-15.759 5.017-14.957-5.017v-26.528c0-8.482 6.876-15.358 15.358-15.358 8.482 0 15.358 6.876 15.358 15.358z" fill="#99e6fc"></path><path d="m497 137.418v68.6c0 6.96-5.64 12.61-12.61 12.61h-484.39v-81.21c0-6.96 5.64-12.6 12.61-12.6h471.78c6.97 0 12.61 5.64 12.61 12.6z" fill="#7a8c98"></path><g fill="#5d717a"><path d="m171.245 218.628h-30.525v-16.67c0-5.94 4.82-10.76 10.77-10.76l30.521-.002z"></path><path d="m171.245 124.818 10.766 27.427-30.521.003c-5.95 0-10.77-4.82-10.77-10.77v-16.66z"></path><path d="m484.393 124.815h-64.845c6.962 0 12.607 5.644 12.607 12.607v68.598c0 6.962-5.644 12.607-12.607 12.607h64.845c6.962 0 12.607-5.644 12.607-12.607v-68.598c0-6.963-5.644-12.607-12.607-12.607z"></path></g><path d="m389.64 152.245h-207.629c-5.946 0-10.766-4.82-10.766-10.766v-30.329c0-5.946 4.82-10.766 10.766-10.766h207.629c5.946 0 10.766 4.82 10.766 10.766v30.328c0 5.947-4.82 10.767-10.766 10.767z" fill="#9facba"></path><path d="m389.64 100.384h-30.521c5.946 0 10.766 4.82 10.766 10.766v30.328c0 5.946-4.82 10.766-10.766 10.766h30.521c5.946 0 10.766-4.82 10.766-10.766v-30.328c0-5.946-4.82-10.766-10.766-10.766z" fill="#8899a5"></path><path d="m389.64 243.056h-131.902c-9.334 0-17.56 6.132-20.226 15.077l-43.2 144.944c-1.944 6.521-7.94 10.991-14.745 10.991h-24.63c-5.56 0-10.068-4.508-10.068-10.068v-73.633c0-5.547 1.566-10.981 4.518-15.677l17.592-27.986c2.787-4.434 4.266-9.565 4.266-14.802v-69.941c0-5.946 4.82-10.766 10.766-10.766h207.629c5.946 0 10.766 4.82 10.766 10.766v30.328c0 5.947-4.82 10.767-10.766 10.767z" fill="#9facba"></path><path d="m206.991 258.133-43.2 144.944c-1.626 5.454-6.09 9.462-11.487 10.631.841.228 1.72.36 2.633.36h24.63c6.805 0 12.801-4.47 14.745-10.991l43.2-144.944c2.666-8.945 10.892-15.077 20.226-15.077h-30.521c-9.334 0-17.56 6.132-20.226 15.077z" fill="#8899a5"></path><path d="m389.64 191.196h-30.521c5.946 0 10.766 4.82 10.766 10.766v30.328c0 5.946-4.82 10.766-10.766 10.766h30.521c5.946 0 10.766-4.82 10.766-10.766v-30.328c0-5.946-4.82-10.766-10.766-10.766z" fill="#8899a5"></path><g><g><path d="m56.075 124.818v33.05c0 4.14-3.36 7.5-7.5 7.5s-7.5-3.36-7.5-7.5v-33.05z" fill="#5d717a"></path></g><g><path d="m86.795 124.818v19.61c0 4.14-3.36 7.5-7.5 7.5s-7.5-3.36-7.5-7.5v-19.61z" fill="#5d717a"></path></g><g><path d="m117.505 124.818v33.05c0 4.14-3.35 7.5-7.5 7.5-4.14 0-7.5-3.36-7.5-7.5v-33.05z" fill="#5d717a"></path></g></g><circle cx="200.701" cy="125.815" fill="#8899a5" r="7.44"></circle><path d="m376.76 125.818c0 3.92-3.03 7.13-6.87 7.41-.19.02-.38.03-.57.03-4.1 0-7.43-3.33-7.43-7.44s3.33-7.44 7.43-7.44c.19 0 .38.01.57.03 3.84.28 6.87 3.49 6.87 7.41z" fill="#8899a5"></path><path d="m376.76 125.818c0 3.92-3.03 7.13-6.87 7.41v-14.82c3.84.28 6.87 3.49 6.87 7.41z" fill="#7a8c98"></path><path d="m376.76 217.328c0 3.92-3.03 7.13-6.87 7.41-.19.02-.38.03-.57.03-4.1 0-7.43-3.33-7.43-7.44s3.33-7.44 7.43-7.44c.19 0 .38.01.57.03 3.84.28 6.87 3.49 6.87 7.41z" fill="#8899a5"></path><path d="m376.76 217.328c0 3.92-3.03 7.13-6.87 7.41v-14.82c3.84.28 6.87 3.49 6.87 7.41z" fill="#7a8c98"></path><g><path d="m200.701 243.128c-4.142 0-7.5-3.358-7.5-7.5v-18.3c0-4.142 3.358-7.5 7.5-7.5s7.5 3.358 7.5 7.5v18.3c0 4.142-3.358 7.5-7.5 7.5z" fill="#8899a5"></path></g></g></svg>